<svg xmlns="http://www.w3.org/2000/svg" viewBox="0 0 360 360"><defs><style>.cls-1{fill:#4bba7d;}.cls-2{fill:#00a79d;}.cls-3{fill:#00aeef;}.cls-4{fill:#1b75bc;}.cls-5{fill:#fff;}</style></defs><title>d_logo</title><g id="circle"><path class="cls-1" d="M0,180A180,180,0,0,0,180,360h5.31L2.65,149.13A181.11,181.11,0,0,0,0,180Z" transform="translate(0 0)"/><path class="cls-2" d="M61.95,44.12a179.76,179.76,0,0,0-59.3,105L185.24,359.92a179.25,179.25,0,0,0,112.42-43.69Z" transform="translate(0 0)"/><path class="cls-3" d="M357.24,211.55,174.09.11a179.25,179.25,0,0,0-112.14,44l235.7,272.11A179.78,179.78,0,0,0,357.24,211.55Z" transform="translate(0 0)"/><path class="cls-4" d="M180,0c-2,0-3.95,0-5.91.11L357.24,211.55A180.14,180.14,0,0,0,180,0Z" transform="translate(0 0)"/></g><g id="white_face" data-name="white face"><path class="cls-5" d="M204.65,34.4l-2.31-.74c-1.53-.5-3.78-1.17-6.75-1.94a92.72,92.72,0,0,0-11.11-2.14,71.81,71.81,0,0,0-15.21-.4,60.21,60.21,0,0,0-8.81,1.5,49,49,0,0,0-9.12,3.36,47.4,47.4,0,0,0-8.83,5.59,52.11,52.11,0,0,0-7.89,7.92,77.54,77.54,0,0,0-11.89,21.5c-3.18,8.15-5.42,17.13-7.48,26.67L113.7,103c-.54,2.48-1,5-1.77,7.69a34.25,34.25,0,0,1-1.45,4.36l-.13.31-.14.31-.21.44-.42.89c-.34.66-.69,1.38-1,2a61.39,61.39,0,0,1-4.67,7.27A103.39,103.39,0,0,1,92.48,139C88.4,143,84.17,146.71,80,150.46c-8.36,7.51-16.75,15.1-23.37,24.3a75.15,75.15,0,0,0-8.42,14.83,73.07,73.07,0,0,0-4.79,16.86c-.23,1.47-.43,3-.59,4.45l0,.28a1.7,1.7,0,0,1,0,.21l0,.58-.08,1.16c0,.75,0,1.41-.06,2.13a45.68,45.68,0,0,0,.9,8.79,56.88,56.88,0,0,0,6.5,17c6.13,10.79,15.1,20.15,25.26,27.91a139.67,139.67,0,0,0,16.15,10.54,153.32,153.32,0,0,0,17.59,8.18,150.57,150.57,0,0,0,18.57,5.76,147.77,147.77,0,0,0,19.13,3.23,141.7,141.7,0,0,0,19.3.61c6.64-.21,13.07-.52,19.58-1s13-1,19.35-1.78,12.75-1.63,19-2.77c12.49-2.31,24.7-5.43,35.89-10.15s21.32-11.09,28.5-19.52A46.66,46.66,0,0,0,293,255.4a45.39,45.39,0,0,0,3.52-7.23,51.39,51.39,0,0,0,3.26-15.61,70.48,70.48,0,0,0-.07-8.06c-.19-2.69-.56-5.37-1-8a101.9,101.9,0,0,0-4.11-15.67A164.93,164.93,0,0,0,281.23,172c-1.29-2.25-2.63-4.45-4-6.63l-1-1.71c-.34-.58-.66-1.07-1-1.72-.73-1.24-1.39-2.45-2-3.64a129.14,129.14,0,0,1-6.4-14.41c-3.6-9.53-6.12-18.79-8.57-27.5s-4.58-17-7-24.55c-1.21-3.8-2.46-7.45-3.78-10.92s-2.76-6.75-4.24-9.85-3-6-4.66-8.7A81.39,81.39,0,0,0,233.4,55a60.91,60.91,0,0,0-20.12-16.89,65.5,65.5,0,0,0-6.38-2.86l-2.26-.83Zm.38-1.14,2.31.81a66.77,66.77,0,0,1,6.54,2.85,67.87,67.87,0,0,1,21.22,16.66,83.84,83.84,0,0,1,5.68,7.3q2.81,4,5.46,8.57A193.33,193.33,0,0,1,256.2,90c3.16,7.49,6.19,15.57,9.38,24s6.52,17.25,10.53,26a136.24,136.24,0,0,0,6.72,12.9c.63,1.05,1.27,2.08,1.9,3.06.29.48.71,1.06,1.06,1.59l1.08,1.59c1.53,2.21,3,4.5,4.45,6.82,2.92,4.65,5.68,9.52,8.23,14.63a145.19,145.19,0,0,1,7,16,114.56,114.56,0,0,1,4.86,17.59,94.16,94.16,0,0,1,1.21,9.38,83.23,83.23,0,0,1,.11,9.7,62.53,62.53,0,0,1-4.23,19.56c-.6,1.6-1.35,3.14-2.08,4.69s-1.61,3-2.54,4.47a59.22,59.22,0,0,1-6.16,8.23,66.39,66.39,0,0,1-7.36,7.11c-1.28,1.13-2.67,2.1-4,3.14s-2.76,2-4.2,2.84a102.13,102.13,0,0,1-18,9,179.78,179.78,0,0,1-38.56,9.83q-9.85,1.43-19.79,2.18c-6.63.5-13.27.71-19.91.86s-13.37,0-19.92-.22a149.53,149.53,0,0,1-20.18-1.88,158.87,158.87,0,0,1-19.66-4.51,162.3,162.3,0,0,1-18.86-6.82,157.47,157.47,0,0,1-17.81-8.94,146.06,146.06,0,0,1-16.47-11c-10.39-8.07-19.76-17.5-26.7-28.63a66.41,66.41,0,0,1-7.93-18,51.19,51.19,0,0,1-1.6-9.79c0-.84-.07-1.74-.08-2.54v-1.75l0-.67c.05-1.61.16-3.21.29-4.81a78.87,78.87,0,0,1,12.17-35.92c6.73-10.62,15.34-19.29,23.67-27.07s16.47-15,22.48-22.8a59.87,59.87,0,0,0,4-6c.31-.51.54-1,.82-1.46l.44-.86.22-.44.07-.13.06-.14a24.74,24.74,0,0,0,1.07-3c1.39-4.6,2.57-9.64,3.93-14.44a163.57,163.57,0,0,1,9.93-27.35A84.27,84.27,0,0,1,130.8,44.15a56.71,56.71,0,0,1,9.31-7.8,51.4,51.4,0,0,1,19.81-8.12,62.49,62.49,0,0,1,9.23-1.06,82,82,0,0,1,15.54,1,112.64,112.64,0,0,1,11.22,2.37c3,.8,5.31,1.49,6.81,2l2.31.75Z" transform="translate(0 0)"/><circle class="cls-5" cx="161.12" cy="121.55" r="24.58"/><circle class="cls-5" cx="211.84" cy="128.95" r="17.29"/><rect class="cls-5" x="150.15" y="105.77" width="10.97" height="10.97" rx="5.48" ry="5.48"/><rect class="cls-5" x="180" y="158.17" width="14.55" height="14.55" rx="7.28" ry="7.28"/></g></svg>